Coordinates
version=1
nRows=14
nColumns=36
inDegrees=yes

Units are S.I. units (second, meters, Newtons, ...)
If the header above contains a line with 'inDegrees', this indicates whether rotational values are in degrees (yes) or radians (no).

endheader
time	pelvis_tilt	pelvis_list	pelvis_rotation	pelvis_tx	pelvis_ty	pelvis_tz	hip_flexion_r	hip_adduction_r	hip_rotation_r	knee_angle_r	knee_angle_r_beta	ankle_angle_r	subtalar_angle_r	mtp_angle_r	hip_flexion_l	hip_adduction_l	hip_rotation_l	knee_angle_l	knee_angle_l_beta	ankle_angle_l	subtalar_angle_l	mtp_angle_l	lumbar_extension	lumbar_bending	lumbar_rotation	arm_flex_r	arm_add_r	arm_rot_r	elbow_flex_r	pro_sup_r	arm_flex_l	arm_add_l	arm_rot_l	elbow_flex_l	pro_sup_l
      2.95000000	     -4.57131572	      0.45626468	     -7.94420252	      0.61850360	      1.06375835	     -0.01873437	     29.69946719	     -9.32196064	     -4.59093376	     21.49566768	      0.37517018	    -14.76630739	      3.02934213	     -7.49999987	     30.13449282	     -8.59889598	     -1.61851355	     26.38304698	      0.46047104	    -16.66955233	     -6.42261166	     -7.49999987	    -22.40404704	      0.30576529	     -0.92025838	    -18.95174805	    -33.93657572	      0.53657654	    109.61982348	     85.20420725	    -34.25509124	    -22.46922236	     -7.34220920	    125.16377439	     94.60804945
      2.96666670	     -3.97516004	      0.49869957	     -7.84168537	      0.62487261	      1.02151423	     -0.02036922	     30.41165169	     -9.73601179	     -4.75402577	     21.80432836	      0.38055732	    -15.38887070	      3.11037250	     -7.49999987	     30.31572993	     -8.69863242	     -1.89785143	     25.19002179	      0.43964882	    -17.63541373	     -4.97396181	     -7.49999987	    -23.06204263	      0.01645531	     -0.91998830	    -17.61363568	    -34.56184301	      1.52053884	    111.67324739	     85.44737553	    -33.24482785	    -21.42879594	     -5.89201919	    126.46228842	     94.88278479
      2.98333330	     -3.15039118	      0.57484923	     -7.36755629	      0.64149279	      0.97842459	     -0.01780624	     31.22364421	    -10.22318823	     -4.18267453	     23.08249837	      0.40286560	    -16.17052943	      2.95676903	     -7.49999987	     32.02402354	     -8.63019785	     -2.37362415	     26.36498716	      0.46015583	    -18.63257298	     -5.09912965	     -7.49999987	    -24.72543858	     -0.17948293	     -1.62801284	    -15.41845335	    -34.80405513	      2.90520702	    113.17557962	     85.15430091	    -31.14942288	    -22.03430922	     -4.26868072	    127.13032068	     94.40649827
      3.00000000	     -2.99751208	      0.49246970	     -7.04613020	      0.65811012	      0.93824194	     -0.01182071	     32.88270201	    -10.22040779	     -2.97496207	     26.21468314	      0.45753253	    -12.33724863	      1.69561074	     -7.49999987	     34.42128351	     -8.66495779	     -1.59426660	     30.11488112	      0.52560383	    -14.50160041	     -6.39822845	     -7.49999987	    -25.11429084	      0.01957988	     -1.68959779	    -11.54382562	    -33.51002133	      3.10436233	    112.60541344	     83.58183414	    -26.47824613	    -21.70578275	     -4.27945333	    125.56831361	     92.11776333
      3.01666670	     -3.61869581	     -0.02425451	     -6.76190719	      0.67554805	      0.89176681	     -0.00124969	     36.84115958	     -9.08289960	     -0.26655691	     34.75475478	      0.60658490	     -4.00825677	     -2.54469026	     -7.49999987	     38.59896283	     -9.30623728	      0.36391911	     38.45757471	      0.67121130	     -6.53616220	     -8.77775154	     -7.49999987	    -24.80651900	      0.42239231	     -1.17305341	     -6.76122300	    -33.06138154	      5.41683709	    112.79521551	     81.39925936	    -21.75642711	    -21.71286484	     -2.53687253	    125.02544337	     88.75509216
      3.03333330	     -4.84426468	      0.02038655	     -7.04160691	      0.69214525	      0.85752143	     -0.00105839	     43.17669547	     -8.16953500	      2.65332720	     46.12889909	      0.80510117	      3.68632355	     -6.89655499	     -7.49999987	     44.10878914	     -9.73361724	      1.42659944	     48.53324878	      0.84706499	      2.26861974	     -9.71258654	     -7.49999987	    -24.39109836	      0.20021486	     -0.72435840	     -1.03532542	    -31.83403608	      7.55679500	    113.28979375	     79.47324263	    -16.05431552	    -22.44024059	     -1.42361772	    124.22604997	     85.70848934
      3.05000000	     -6.64501868	      0.66294693	     -7.41960904	      0.69310053	      0.82017061	     -0.00027113	     51.09309520	     -7.57530707	      5.28344459	     57.82142039	      1.00917416	      9.43376064	     -9.78129762	     -7.49999987	     51.39208640	     -9.68797306	      2.44665087	     59.53778014	      1.03913029	      9.61035414	    -10.55702693	     -7.49999987	    -25.17299830	     -0.57794918	     -1.58458100	      5.95816858	    -29.79034710	      8.65810451	    112.62588904	     89.52133986	    -11.68060432	    -22.35262057	     -3.69547353	    124.11128748	     95.82930288
      3.06666670	     -8.33048454	      1.24818136	     -7.51167085	      0.69824531	      0.79518528	     -0.00211342	     57.22962337	     -7.22863863	      7.04495512	     66.53280397	      1.16121649	     13.63769975	    -10.91022923	     -7.49999987	     56.91695638	     -9.23915462	      3.32172996	     67.59937761	      1.17983171	     14.94166051	    -11.23536668	     -7.49999987	    -26.26156176	     -0.90031233	     -1.34790584	     14.46704765	    -28.18390681	      9.16219576	    110.94873083	     89.01856496	     -2.59059754	    -23.58559380	     -1.97188866	    123.15541469	     95.11840335
      3.08333330	     -9.68476516	      1.61007117	     -7.25011629	      0.69971373	      0.76945462	      0.00395363	     62.40431715	     -7.12979649	      7.94852647	     73.49563369	      1.28274079	     17.13912386	    -10.71987617	     -7.49999987	     61.65308202	     -8.88708058	      4.17348130	     74.05204144	      1.29245194	     18.79508090	    -11.72537854	     -7.49999987	    -28.40289254	     -0.87763924	     -1.09217591	     21.55512929	    -26.90420259	      9.92953924	    110.49861768	     89.62709128	      5.50888287	    -24.83669523	     -1.65970907	    122.48380787	     95.36960523
      3.10000000	    -10.86327682	      1.91209610	     -6.96707166	      0.70629290	      0.75194735	      0.00178916	     66.08756495	     -7.28452006	      8.63261229	     78.35602269	      1.36757058	     19.91027799	    -10.04097638	     -7.49999987	     65.08525007	     -8.47865768	      4.75183267	     78.69919333	      1.37356004	     21.21241948	    -12.04140663	     -7.49999987	    -30.80695887	     -0.75154859	     -0.27261436	     29.12892154	    -27.42389854	     12.35952208	    110.50053664	     89.69615751	     13.12993504	    -25.17162153	     -0.75216827	    122.79624347	     94.23793064
      3.11666670	    -13.00151520	      2.28178969	     -6.27294910	      0.69112437	      0.73216264	      0.00281397	     70.70620454	     -7.74946568	      9.01378074	     81.87502626	      1.42898878	     21.73260241	     -9.09110540	     -7.49999987	     69.61102130	     -8.07555752	      5.15053954	     82.05573784	      1.43214280	     22.15396571	    -12.22314985	     -7.49999987	    -33.56723090	     -0.17189054	      0.02934597	     38.57411763	    -27.74421013	     15.60142387	    109.48591284	     90.05610907	     23.73900331	    -27.47007898	      2.28033905	    122.48399056	     93.92632756
      3.13333330	    -15.08650596	      2.54658726	     -6.11172485	      0.69255604	      0.70702014	      0.00206851	     75.21567535	     -7.99321328	      9.30000097	     85.14472685	      1.48605582	     23.11716689	     -7.92962557	     -7.49999987	     73.92032605	     -8.08540438	      5.56895124	     85.19006706	      1.48684716	     22.85762203	    -12.27097014	     -7.49999987	    -35.40179138	     -0.09459181	      1.93995633	     45.33052139	    -29.46632099	     16.41685379	    111.92614139	     88.55177999	     36.19403022	    -28.25996969	      7.85590385	    122.07911655	     88.60332986
      3.15000000	    -16.71352332	      2.56589516	     -5.81785074	      0.69673761	      0.70039128	      0.00227619	     78.22101138	     -8.43263041	      9.20824157	     87.35336373	      1.52460381	     24.21348005	     -6.71399618	     -7.49999987	     76.91195348	     -8.17508172	      5.91341391	     87.17713649	      1.52152806	     23.55558389	    -11.77861985	     -7.49999987	    -37.66421442	      0.33335162	      2.28381895	     52.90758733	    -30.13526890	     18.27955086	    111.80961371	     88.87059094	     44.49474305	    -28.12153389	      9.36475162	    120.73658222	     88.73147617
      3.16666670	    -18.19831163	      2.63266681	     -5.20382597	      0.68501978	      0.69044472	     -0.00011618	     81.10598850	     -9.35915028	      8.91612972	     88.85910716	      1.55088399	     24.91243677	     -5.62122897	     -7.49999987	     79.66510780	     -8.05557120	      5.98725518	     88.23920013	      1.54006457	     23.12044545	    -11.80279833	     -7.49999987	    -40.05514852	      1.11194989	      2.54771418	     60.36071877	    -31.27456689	     20.41860439	    110.99748148	     89.19084810	     53.73981811	    -28.21296149	     11.88123697	    119.29204440	     88.87014719
